# xmcd CD database file
#
# Track frame offsets:
#	183
#	36815
#	74388
#	86773
#	103740
#	121505
#	165533
#	204800
#
# Disc length: 3286 seconds
#
# Revision: 0
# Processed by: cddbd v1.5.1PL2 Copyright (c) Steve Scherf et al.
# Submitted via: CDex 1.51
#
DISCID=5e0cd408
DTITLE=Bobby Jaspar - Featuring - Mundell Lowe and René Thomas
DYEAR=1991
DGENRE=Jazz
TTITLE0=It Could Happen to You
TTITLE1=Gal in Calico
TTITLE2=Stuffy
TTITLE3=Waltz for Debbie
TTITLE4=My Fair Lady Medley
TTITLE5=Suite for a Clown
TTITLE6=Now's the Time
TTITLE7=Florence
EXTD=YEAR: 1991
EXTT0=
EXTT1=
EXTT2=
EXTT3=
EXTT4=
EXTT5=
EXTT6=
EXTT7=
PLAYORDER=
